# Blender v2.80 (sub 75) OBJ File: 'ChestForAsset10_06v2.blend'
# www.blender.org
g ForEmitter01
v -0.021867 0.276670 0.407808
v -0.068432 0.292124 0.392567
v -0.208363 0.277066 0.362684
v -0.268705 0.254572 0.340305
v -0.242824 0.265113 0.362584
v -0.021867 0.245715 0.407808
v -0.068432 0.269400 0.392567
v -0.208362 0.245605 0.362684
v -0.242823 0.226261 0.362584
v -0.268705 0.207282 0.340305
v -0.109013 0.298191 0.360158
v -0.109008 0.277989 0.360157
v -0.271772 0.240903 0.239464
v -0.268171 0.244000 0.159642
v -0.264569 0.257839 0.079821
v -0.271772 0.179006 0.239464
v -0.268171 0.181846 0.159642
v -0.264569 0.213765 0.079821
v -0.164637 0.290950 0.361572
v -0.164634 0.266741 0.361572
v 0.021867 0.259450 0.407808
v 0.068432 0.246706 0.392567
v 0.275374 0.309840 0.319285
v 0.220261 0.291056 0.362987
v 0.268112 0.303764 0.345472
v 0.246904 0.296556 0.362572
v 0.021867 0.218975 0.407808
v 0.068432 0.196935 0.392567
v 0.220261 0.260468 0.362987
v 0.246904 0.268220 0.362572
v 0.268112 0.278960 0.345472
v 0.275374 0.288379 0.319285
v 0.109013 0.251792 0.360158
v 0.109008 0.200408 0.360157
v 0.271772 0.311099 0.239464
v 0.268171 0.290101 0.159642
v 0.264569 0.260873 0.079821
v 0.271772 0.293321 0.239464
v 0.268171 0.266041 0.159642
v 0.264569 0.221937 0.079821
v 0.164637 0.272356 0.361572
v 0.164634 0.232534 0.361572
v -0.260968 0.278009 0.000000
v -0.021867 0.281815 -0.407808
v -0.068432 0.272523 -0.392567
v -0.275374 0.242910 -0.319285
v -0.220261 0.239804 -0.362987
v -0.262908 0.241309 -0.347377
v -0.274172 0.192369 0.292644
v -0.260968 0.248257 0.000000
v -0.021867 0.252450 -0.407808
v -0.068432 0.236594 -0.392567
v -0.220261 0.177892 -0.362987
v -0.274172 0.247047 0.292644
v -0.262908 0.179400 -0.347377
v -0.275374 0.182017 -0.319285
v -0.109013 0.258775 -0.360158
v -0.109008 0.214308 -0.360157
v -0.271772 0.255738 -0.239464
v -0.268171 0.277986 -0.159642
v -0.264569 0.287404 -0.079821
v -0.271772 0.210532 -0.239464
v -0.268171 0.247391 -0.159642
v -0.264569 0.262233 -0.079821
v -0.164637 0.244921 -0.361572
v -0.164634 0.191237 -0.361572
v 0.260968 0.246923 0.000000
v 0.021867 0.284805 -0.407808
v 0.068432 0.282323 -0.392567
v 0.274483 0.243449 -0.299538
v 0.220261 0.252905 -0.362987
v 0.268112 0.250364 -0.345472
v 0.260968 0.185579 0.000000
v 0.021867 0.257517 -0.407808
v 0.068432 0.254015 -0.392567
v 0.220261 0.200720 -0.362987
v 0.268112 0.192468 -0.345472
v 0.274483 0.180331 -0.299538
v 0.109013 0.273190 -0.360158
v 0.109008 0.240239 -0.360157
v 0.271772 0.232880 -0.239464
v 0.268171 0.225810 -0.159642
v 0.264569 0.232880 -0.079821
v 0.271772 0.163791 -0.239464
v 0.268171 0.153456 -0.159642
v 0.264569 0.163791 -0.079821
v 0.164637 0.260663 -0.361572
v 0.164634 0.219792 -0.361572
vt 0.758452 0.317878
vt 0.737398 0.317878
vt 0.737398 0.221747
vt 0.758452 0.221747
vt 0.717208 0.317878
vt 0.717208 0.221747
vt 0.657342 0.221747
vt 0.657342 0.317878
vt 0.646440 0.317878
vt 0.646440 0.221747
vt 0.635373 0.317878
vt 0.635373 0.221747
vt 0.531542 0.221747
vt 0.531542 0.317878
vt 0.496502 0.317878
vt 0.496502 0.221747
vt 0.696155 0.317878
vt 0.696155 0.221747
vt 0.675787 0.317878
vt 0.675787 0.221747
vt 0.611291 0.221747
vt 0.611291 0.317878
vt 0.598031 0.317878
vt 0.598031 0.221747
vt 0.566139 0.317878
vt 0.566139 0.221747
vt 0.778471 0.221747
vt 0.778471 0.317878
vt 0.838863 0.221747
vt 0.849336 0.221747
vt 0.849336 0.317878
vt 0.838863 0.317878
vt 0.860139 0.221747
vt 0.860139 0.317878
vt 0.870892 0.221747
vt 0.870892 0.317878
vt 0.964735 0.221747
vt 0.999936 0.221747
vt 0.999936 0.317878
vt 0.964735 0.317878
vt 0.799459 0.221747
vt 0.799459 0.317878
vt 0.820465 0.317878
vt 0.820465 0.221747
vt 0.897133 0.221747
vt 0.897133 0.317878
vt 0.929604 0.221747
vt 0.929604 0.317878
vt 0.237468 0.317878
vt 0.237468 0.221747
vt 0.257642 0.221747
vt 0.257642 0.317878
vt 0.277462 0.317878
vt 0.277462 0.221747
vt 0.358156 0.221747
vt 0.368683 0.221747
vt 0.368683 0.317878
vt 0.358156 0.317878
vt 0.462278 0.221747
vt 0.462278 0.317878
vt 0.298976 0.221747
vt 0.298976 0.317878
vt 0.319698 0.317878
vt 0.319698 0.221747
vt 0.395535 0.221747
vt 0.395535 0.317878
vt 0.428482 0.221747
vt 0.428482 0.317878
vt 0.337364 0.317878
vt 0.337364 0.221747
vt 0.218024 0.317878
vt 0.218024 0.221747
vt 0.137304 0.221747
vt 0.137304 0.317878
vt 0.126695 0.317878
vt 0.126695 0.221747
vt 0.034514 0.221747
vt 0.034514 0.317878
vt 0.000059 0.317878
vt 0.000059 0.221747
vt 0.196825 0.221747
vt 0.196825 0.317878
vt 0.158191 0.317878
vt 0.158191 0.221747
vt 0.176099 0.317878
vt 0.176099 0.221747
vt 0.100126 0.317878
vt 0.100126 0.221747
vt 0.068182 0.317878
vt 0.068182 0.221747
vn 0.1270 0.0000 0.9919
vn -0.1922 0.0000 0.9813
vn -0.1088 0.0000 0.9940
vn 0.2080 0.0000 0.9781
vn -0.4977 -0.0000 0.8673
vn -0.4464 -0.0000 0.8948
vn 0.0070 0.0000 1.0000
vn 0.0142 0.0000 0.9999
vn -0.2795 0.0000 0.9601
vn -0.4584 0.0000 0.8887
vn -0.8571 0.0000 0.5152
vn -0.9287 0.0000 0.3707
vn -0.9990 0.0000 -0.0450
vn -1.0000 0.0000 0.0054
vn -1.0000 0.0000 -0.0078
vn -0.3201 -0.0000 0.9474
vn -0.3151 -0.0000 0.9490
vn 0.0254 0.0000 0.9997
vn -0.9998 0.0000 0.0204
vn -0.9991 0.0000 0.0413
vn 0.4963 0.0000 0.8681
vn 0.4680 0.0000 0.8837
vn -0.0095 0.0000 0.9999
vn 0.2694 0.0000 0.9630
vn 0.3865 0.0000 0.9223
vn -0.0013 0.0000 1.0000
vn 0.7944 0.0000 0.6074
vn 0.8618 0.0000 0.5071
vn 0.9914 0.0000 0.1307
vn 0.9950 0.0000 0.0998
vn 0.9990 0.0000 -0.0450
vn 0.9999 0.0000 0.0105
vn 1.0000 0.0000 -0.0050
vn 0.3934 0.0000 0.9194
vn 0.2723 0.0000 0.9622
vn -0.0254 0.0000 0.9997
vn 0.1584 0.0000 -0.9874
vn 0.1554 0.0000 -0.9878
vn -0.1776 0.0000 -0.9841
vn -0.1441 0.0000 -0.9895
vn -0.4519 0.0000 -0.8921
vn -0.5100 0.0000 -0.8601
vn -0.6712 0.0000 -0.7413
vn -0.9756 0.0000 -0.2194
vn -0.9854 0.0000 -0.1701
vn -0.6914 0.0000 -0.7225
vn -0.9990 0.0000 0.0450
vn -0.2294 0.0000 -0.9733
vn -0.3730 0.0000 -0.9278
vn 0.0254 0.0000 -0.9997
vn -0.1586 0.0000 -0.9873
vn -0.1752 0.0000 -0.9845
vn 0.4632 0.0000 -0.8862
vn 0.4908 0.0000 -0.8712
vn 0.8244 0.0000 -0.5660
vn 0.7532 0.0000 -0.6578
vn 0.9984 0.0000 -0.0558
vn 0.9995 0.0000 -0.0311
vn 0.9990 0.0000 0.0450
vn 0.2527 0.0000 -0.9675
vn 0.3623 -0.0000 -0.9320
vn 0.1510 0.0000 -0.9885
vn 0.1929 0.0000 -0.9812
vn -0.0254 0.0000 -0.9997
s 1
f 21/1/1 1/2/2 6/3/3 27/4/4
f 2/5/5 7/6/6 6/3/3 1/2/2
f 8/7/7 3/8/8 5/9/9 9/10/10
f 9/10/10 5/9/9 4/11/11 10/12/12
f 18/13/13 15/14/13 43/15/14 50/16/15
f 2/5/5 11/17/16 12/18/17 7/6/6
f 19/19/18 20/20/18 12/18/17 11/17/16
f 49/21/19 54/22/20 13/23/13 16/24/13
f 16/24/13 13/23/13 14/25/13 17/26/13
f 17/26/13 14/25/13 15/14/13 18/13/13
f 3/8/8 8/7/7 20/20/18 19/19/18
f 21/1/1 27/4/4 28/27/21 22/28/22
f 29/29/23 30/30/24 26/31/25 24/32/26
f 30/30/24 31/33/27 25/34/28 26/31/25
f 31/33/27 32/35/29 23/36/30 25/34/28
f 40/37/31 73/38/32 67/39/33 37/40/31
f 28/27/21 34/41/34 33/42/35 22/28/22
f 41/43/36 33/42/35 34/41/34 42/44/36
f 32/35/29 38/45/31 35/46/31 23/36/30
f 38/45/31 39/47/31 36/48/31 35/46/31
f 39/47/31 40/37/31 37/40/31 36/48/31
f 24/32/26 41/43/36 42/44/36 29/29/23
f 68/49/37 74/50/38 51/51/39 44/52/40
f 45/53/41 44/52/40 51/51/39 52/54/42
f 4/11/11 54/22/20 49/21/19 10/12/12
f 55/55/43 56/56/44 46/57/45 48/58/46
f 64/59/47 50/16/15 43/15/14 61/60/47
f 52/54/42 58/61/48 57/62/49 45/53/41
f 65/63/50 57/62/49 58/61/48 66/64/50
f 56/56/44 62/65/47 59/66/47 46/57/45
f 62/65/47 63/67/47 60/68/47 59/66/47
f 63/67/47 64/59/47 61/60/47 60/68/47
f 47/69/51 65/63/50 66/64/50 53/70/52
f 68/49/37 69/71/53 75/72/54 74/50/38
f 55/55/43 48/58/46 47/69/51 53/70/52
f 77/73/55 72/74/56 70/75/57 78/76/58
f 86/77/59 83/78/59 67/79/33 73/80/32
f 80/81/60 75/72/54 69/71/53 79/82/61
f 71/83/62 72/74/56 77/73/55 76/84/63
f 87/85/64 88/86/64 80/81/60 79/82/61
f 78/76/58 70/75/57 81/87/59 84/88/59
f 84/88/59 81/87/59 82/89/59 85/90/59
f 85/90/59 82/89/59 83/78/59 86/77/59
f 71/83/62 76/84/63 88/86/64 87/85/64
